<svg width="75" height="75" viewBox="0 0 75 75" fill="none" xmlns="http://www.w3.org/2000/svg">
<rect width="75" height="75" rx="10" fill="white"/>
<g clip-path="url(#clip0_446_510)">
<path d="M6.35036 35.9042C6.41657 35.7486 6.49603 35.5929 6.60197 35.4631C6.69467 35.3334 6.82709 35.2166 6.97276 35.1258C7.13167 35.035 7.31706 34.9571 7.55543 34.9052C7.78055 34.8533 8.07189 34.8274 8.42944 34.8274C8.64132 34.8274 8.8532 34.8404 9.05184 34.8533C9.25047 34.8793 9.44911 34.9182 9.62126 34.9961C9.79342 35.0739 9.96557 35.1777 10.1112 35.3204C10.2569 35.4631 10.3893 35.6577 10.4953 35.9042L13.8456 43.8184H10.7734L10.0583 41.9891H6.80061L6.08551 43.8184H3L6.35036 35.9042ZM7.50246 39.9521H9.36966L8.54862 37.7076C8.53538 37.6687 8.50889 37.6298 8.49565 37.5909C8.46916 37.539 8.45592 37.526 8.44268 37.526C8.42944 37.526 8.40295 37.5519 8.38971 37.5909C8.36322 37.6428 8.34998 37.6817 8.33674 37.7076L7.50246 39.9521Z" fill="#53555C"/>
<path d="M13.5808 34.9312H16.5074V43.8184H13.5808V34.9312ZM20.0696 43.8184L17.3284 40.3803C17.0636 40.0559 16.9312 39.6797 16.9312 39.2645C16.9312 39.0958 16.9577 38.9142 17.0106 38.7325C17.0636 38.5509 17.1298 38.3952 17.2225 38.2785L19.6591 34.9312H23.1287L19.977 38.6028C19.9107 38.6807 19.8445 38.7715 19.7916 38.8882C19.7386 39.005 19.7121 39.1218 19.7121 39.2385C19.7121 39.3294 19.7386 39.4461 19.7783 39.5888C19.818 39.7316 19.924 39.8872 20.0829 40.0559L23.6054 43.8184H20.0696Z" fill="#53555C"/>
<path d="M28.0813 34.8404C28.4389 34.8533 28.7964 34.8923 29.154 34.9442C29.4983 35.009 29.8426 35.0998 30.1472 35.2166C30.465 35.3334 30.7431 35.515 30.9814 35.7356C31.2198 35.9561 31.4184 36.2156 31.5509 36.514C31.6833 36.8124 31.7892 37.1238 31.8554 37.4352C31.9216 37.7595 31.9614 38.0839 31.9746 38.4212C31.9879 38.7585 31.9879 39.0699 31.9879 39.3683C31.9879 39.6667 31.9746 39.9781 31.9746 40.3024C31.9614 40.6268 31.9216 40.9641 31.8554 41.2755C31.7892 41.5998 31.6833 41.9112 31.5509 42.1967C31.4184 42.4821 31.2198 42.7545 30.9814 42.9881C30.7431 43.2086 30.465 43.3773 30.1472 43.507C29.8293 43.6238 29.4983 43.7146 29.154 43.7795C28.8097 43.8444 28.4389 43.8703 28.0813 43.8833C27.7105 43.8963 27.3662 43.8963 27.0219 43.8963C26.6909 43.8963 26.3333 43.8963 25.9625 43.8833C25.5917 43.8703 25.2342 43.8314 24.8899 43.7795C24.5456 43.7146 24.2013 43.6238 23.8967 43.507C23.5789 43.3903 23.3008 43.2086 23.0624 42.9881C22.8108 42.7545 22.6254 42.4951 22.4797 42.1967C22.3473 41.8983 22.2414 41.5869 22.1751 41.2755C22.1089 40.9511 22.0692 40.6268 22.056 40.3024C22.0427 39.9781 22.0427 39.6537 22.0427 39.3683C22.0427 39.0829 22.0427 38.7585 22.056 38.4212C22.0692 38.0839 22.1089 37.7595 22.1751 37.4352C22.2414 37.1108 22.3473 36.7994 22.4797 36.514C22.6122 36.2156 22.8108 35.9561 23.0624 35.7356C23.3008 35.515 23.5789 35.3464 23.8967 35.2166C24.2145 35.0998 24.5456 35.009 24.8899 34.9442C25.2342 34.8793 25.5917 34.8533 25.9625 34.8404C26.3201 34.8274 26.6776 34.8274 27.0219 34.8274C27.3662 34.8274 27.7238 34.8274 28.0813 34.8404ZM25.1017 40.3154C25.1415 40.5879 25.2342 40.8344 25.3798 41.0549C25.4725 41.1977 25.5785 41.3144 25.6977 41.4052C25.8168 41.4961 25.936 41.5609 26.0685 41.5998C26.2009 41.6388 26.3465 41.6647 26.5055 41.6777C26.6644 41.6907 26.8365 41.6907 27.0219 41.6907C27.2073 41.6907 27.3927 41.6907 27.5516 41.6777C27.7105 41.6647 27.8562 41.6388 27.9886 41.5998C28.121 41.5609 28.2402 41.4961 28.3462 41.4052C28.4521 41.3144 28.5713 41.1977 28.664 41.0549C28.8229 40.8214 28.9288 40.5619 28.9553 40.3024C28.9818 40.03 28.9951 39.7186 28.9951 39.3683C28.9951 39.1737 28.9951 39.005 28.9951 38.8493C28.9951 38.6937 28.9818 38.5509 28.9686 38.4212C28.9553 38.2915 28.9156 38.1617 28.8759 38.045C28.8229 37.9282 28.7567 37.7985 28.6772 37.6817C28.4786 37.3963 28.2535 37.2146 27.9886 37.1368C27.7238 37.0589 27.4059 37.033 27.0352 37.033C26.8498 37.033 26.6776 37.033 26.5187 37.046C26.3598 37.0589 26.2141 37.0849 26.0817 37.1368C25.9493 37.1887 25.8168 37.2535 25.7109 37.3314C25.5917 37.4222 25.499 37.526 25.4063 37.6687C25.2474 37.9022 25.1415 38.1487 25.115 38.4082C25.0885 38.6677 25.0753 38.9791 25.0753 39.3553C25.0355 39.7316 25.062 40.043 25.1017 40.3154Z" fill="#53555C"/>
<path d="M41.9728 41.5998H47.0049C47.2168 41.5998 47.3625 41.5739 47.4154 41.509C47.4817 41.4441 47.5081 41.3922 47.5081 41.3144C47.5081 41.1717 47.4419 41.0679 47.3227 41.016C47.2036 40.9641 47.0711 40.9122 46.9255 40.8733L43.4162 39.9132C43.1514 39.8483 42.9262 39.7445 42.7673 39.6148C42.6084 39.485 42.476 39.3553 42.3833 39.2385C42.1714 38.9531 42.0257 38.6417 41.9728 38.2914C41.9198 37.9411 41.8933 37.5908 41.8933 37.2665C41.8933 36.9811 41.9198 36.6826 41.9728 36.3713C42.0257 36.0469 42.1846 35.7615 42.4627 35.489C42.6084 35.3463 42.807 35.2166 43.0587 35.0998C43.3103 34.983 43.6281 34.9312 44.0121 34.9312H49.9977V37.1367H45.3761C45.2039 37.1367 45.0848 37.1367 45.0318 37.1497C44.9656 37.1627 44.9258 37.1757 44.8994 37.1886C44.8067 37.2405 44.7537 37.3184 44.7537 37.4351C44.7537 37.5779 44.8332 37.6817 45.0053 37.7465C45.1775 37.8114 45.3364 37.8633 45.5085 37.9152L48.5543 38.7196C48.7529 38.7715 48.9648 38.8493 49.2032 38.9531C49.4415 39.0569 49.6402 39.1866 49.7991 39.3423C49.9315 39.4721 50.0507 39.6278 50.1302 39.8094C50.2096 39.9781 50.2758 40.1597 50.3156 40.3413C50.3553 40.523 50.3818 40.7046 50.395 40.8862C50.4083 41.0679 50.4083 41.2236 50.4083 41.3793C50.4083 41.6387 50.3818 41.9371 50.342 42.2615C50.3023 42.5858 50.1699 42.8842 49.9713 43.1567C49.8388 43.3254 49.7064 43.4551 49.5607 43.5459C49.4151 43.6367 49.2694 43.7016 49.1105 43.7535C48.9516 43.7924 48.7927 43.8184 48.6338 43.8314C48.4748 43.8443 48.3159 43.8443 48.1703 43.8443H41.9595V41.5998H41.9728Z" fill="#53555C"/>
<path d="M53.5203 43.8184V37.1367H50.2759V34.9312H59.6781V37.1367H56.4337V43.8184H53.5203Z" fill="#53555C"/>
<path d="M59.9692 43.8184V34.9312H62.8958V43.8184H59.9692Z" fill="#53555C"/>
<path d="M63.3592 41.5998H68.3914C68.6033 41.5998 68.7489 41.5739 68.8019 41.509C68.8681 41.4441 68.8946 41.3922 68.8946 41.3144C68.8946 41.1717 68.8284 41.0679 68.7092 41.016C68.59 40.9641 68.4576 40.9122 68.3119 40.8733L64.8027 39.9132C64.5378 39.8483 64.3127 39.7445 64.1538 39.6148C63.9949 39.485 63.8625 39.3553 63.7698 39.2385C63.5579 38.9531 63.4122 38.6417 63.3592 38.2914C63.3063 37.9411 63.2798 37.5908 63.2798 37.2665C63.2798 36.9811 63.3063 36.6826 63.3592 36.3713C63.4122 36.0469 63.5711 35.7615 63.8492 35.489C63.9949 35.3463 64.1935 35.2166 64.4451 35.0998C64.6967 34.983 65.0146 34.9312 65.3986 34.9312H71.3842V37.1367H66.7758C66.6037 37.1367 66.4845 37.1367 66.4315 37.1497C66.3653 37.1627 66.3256 37.1757 66.2991 37.1886C66.2064 37.2405 66.1534 37.3184 66.1534 37.4351C66.1534 37.5779 66.2329 37.6817 66.405 37.7465C66.5772 37.8114 66.7361 37.8633 66.9082 37.9152L69.954 38.7196C70.1527 38.7715 70.3645 38.8493 70.6029 38.9531C70.8413 39.0569 71.0399 39.1866 71.1988 39.3423C71.3312 39.4721 71.4504 39.6278 71.5299 39.8094C71.6093 39.9781 71.6755 40.1597 71.7153 40.3413C71.755 40.523 71.7815 40.7046 71.7947 40.8862C71.808 41.0679 71.808 41.2236 71.808 41.3793C71.808 41.6387 71.7815 41.9371 71.7418 42.2615C71.702 42.5858 71.5696 42.8842 71.371 43.1567C71.2385 43.3254 71.1061 43.4551 70.9605 43.5459C70.8148 43.6367 70.6691 43.7016 70.5102 43.7535C70.3513 43.7924 70.1924 43.8184 70.0335 43.8314C69.8746 43.8443 69.7157 43.8443 69.57 43.8443H63.3592V41.5998Z" fill="#53555C"/>
<path d="M23.751 34.2175C23.751 34.2175 31.2198 32.8034 32.8354 36.3323V34.3862C32.8486 34.3992 31.3125 32.6347 23.751 34.2175Z" fill="#CECBCD"/>
<path d="M31.0476 31.6616C31.0476 31.6616 38.5164 30.2475 40.132 33.7764V31.8303C40.132 31.8433 38.6091 30.0788 31.0476 31.6616Z" fill="#CECBCD"/>
<path d="M38.5828 35.0351V39.1738C38.5828 39.2646 38.5828 39.3684 38.5828 39.4722C38.5828 39.576 38.5564 39.6928 38.5299 39.8225C38.5034 39.9523 38.4504 40.069 38.3974 40.1988C38.3312 40.3285 38.2518 40.4582 38.1326 40.575C38.0002 40.7177 37.8413 40.8475 37.6294 40.9642C37.4307 41.081 37.2189 41.1718 37.0202 41.2367C36.8083 41.3016 36.6097 41.3405 36.4111 41.3405C36.2124 41.3535 36.0403 41.3275 35.9079 41.2626C35.696 41.1588 35.5635 41.0032 35.5238 40.7696C35.4841 40.5491 35.4576 40.3415 35.4576 40.1469V34.5291C34.5968 34.2826 34.1201 34.0491 34.1201 34.0491C33.842 33.9193 33.5639 33.8026 33.2858 33.6858L32.531 33.9193V41.3016C32.531 41.5351 32.5442 41.7557 32.5575 41.9762C32.584 42.1968 32.6237 42.4173 32.6899 42.6249C32.7561 42.8325 32.8621 43.0271 32.9813 43.1958C33.1004 43.3774 33.2726 43.5331 33.4712 43.6628C33.7096 43.8185 33.9612 43.9223 34.2393 43.9612C34.5174 44.0002 34.8087 44.0131 35.1133 43.9872C35.4179 43.9612 35.7357 43.9093 36.0535 43.8315C36.3713 43.7537 36.7024 43.6628 37.0202 43.559C37.338 43.4553 37.6559 43.3515 37.9869 43.2217C38.3047 43.105 38.6226 42.9493 38.9271 42.7936C39.2317 42.6249 39.5231 42.4433 39.8012 42.2227C40.0792 42.0022 40.3309 41.7427 40.5692 41.4443C40.7679 41.1848 40.9268 40.9253 41.0592 40.6788C41.1784 40.4193 41.2843 40.1728 41.3505 39.9263C41.4167 39.6798 41.4697 39.4333 41.483 39.1998C41.5094 38.9662 41.5094 38.7327 41.5094 38.4992V34.9054C40.45 35.0481 39.4568 35.074 38.5828 35.0351Z" fill="#00AEEF"/>
<path d="M41.5094 34.2305V31.0908L38.5828 32.012V33.9711C39.576 34.1786 40.5691 34.2435 41.5094 34.2305Z" fill="#00AEEF"/>
<path d="M35.4442 34.4252C36.1857 34.6588 37.6424 34.9831 38.5826 35.035V33.9711C37.6822 33.7376 37.1657 33.517 36.1725 33.1667C34.5569 32.5959 28.0681 29.8194 20.5066 34.049C20.5066 34.049 27.6046 31.4931 33.2591 33.6857L35.4442 32.9981V34.4252Z" fill="#C9DC55"/>
<path d="M35.4443 34.529V32.998L33.2593 33.6857C33.5374 33.7895 33.8155 33.9192 34.0936 34.0489C34.1068 34.0489 34.5835 34.2825 35.4443 34.529Z" fill="#00AEEF"/>
<path d="M41.5092 34.2306C40.569 34.2566 39.5361 34.1787 38.5297 33.9582L38.5032 35.022C39.3772 35.0739 40.4366 35.048 41.496 34.9053C43.3367 34.6588 45.429 34.0749 47.6802 32.8943C47.6935 32.8943 44.9258 34.1528 41.5092 34.2306Z" fill="#C9DC55"/>
<path d="M73 35.5151C73 35.8654 72.7087 36.1508 72.3379 36.1508C71.9671 36.1508 71.6758 35.8654 71.6758 35.5151C71.6758 35.1648 71.9671 34.8923 72.3379 34.8923C72.7087 34.8923 73 35.1648 73 35.5151ZM71.8479 35.5151C71.8479 35.8005 72.0598 36.0211 72.3512 36.0211C72.6292 36.0211 72.8411 35.8005 72.8411 35.5281C72.8411 35.2426 72.6292 35.0221 72.3512 35.0221C72.0731 35.0221 71.8479 35.2426 71.8479 35.5151ZM72.232 35.8524H72.0863V35.2297C72.1393 35.2167 72.232 35.2167 72.3379 35.2167C72.4571 35.2167 72.5101 35.2297 72.563 35.2686C72.6028 35.2945 72.6292 35.3464 72.6292 35.4113C72.6292 35.4762 72.5763 35.5281 72.4968 35.554V35.541C72.563 35.567 72.5895 35.6059 72.616 35.6967C72.6292 35.7875 72.6425 35.8265 72.669 35.8524H72.5101C72.4968 35.8265 72.4836 35.7746 72.4571 35.6967C72.4439 35.6319 72.4041 35.5929 72.3247 35.5929H72.2585V35.8524H72.232ZM72.2452 35.4891H72.3114C72.3909 35.4891 72.4571 35.4632 72.4571 35.3983C72.4571 35.3464 72.4174 35.3075 72.3247 35.3075C72.2849 35.3075 72.2585 35.3075 72.2452 35.3205V35.4891Z" fill="#53555C"/>
</g>
<defs>
<clipPath id="clip0_446_510">
<rect width="70" height="13" fill="white" transform="translate(3 31)"/>
</clipPath>
</defs>
</svg>
