<svg width="373" height="54" viewBox="0 0 373 54" fill="none" xmlns="http://www.w3.org/2000/svg">
<g clip-path="url(#clip0_384_957)">
<path d="M43.4951 37.7635L39.4132 47.364H30.1776L31.0745 37.7635C31.4318 34.2213 31.9715 28.2238 32.2755 24.1419H31.8575C30.8997 28.2238 29.2806 34.3429 28.3152 37.7635L25.7992 47.364H9.00781L20.045 5.96704H41.1007L40.5002 25.0464L49.1353 5.96704H71.5745L60.5374 47.3564H43.7384L46.2544 37.7559C47.2122 34.3353 48.8313 28.2162 50.0323 24.1343H49.6142C47.6911 28.2162 45.0534 34.2137 43.4951 37.7559V37.7635Z" fill="white"/>
<path d="M62.9316 47.3564L73.9688 5.96704H90.7678L79.7306 47.3564H62.9316Z" fill="white"/>
<path d="M81.5322 47.3564L86.6327 32.2981L100.308 33.6816C101.987 33.6816 102.527 33.4991 102.884 32.2449C103.181 31.1047 101.448 30.8691 96.3473 29.9645C89.8709 28.8243 88.191 25.8826 90.4106 17.6047C92.8126 8.72633 100.429 5.12329 110.805 5.12329L126.821 5.95944L121.903 20.3564L107.384 17.2398C106.366 17.2398 105.644 17.4831 105.347 18.5625C104.99 19.9991 105.948 20.2424 112.424 21.565C121.181 23.3665 121.66 26.1258 119.44 34.5253C117.221 42.8032 113.739 48.2001 97.9664 48.2001L81.5322 47.364V47.3564Z" fill="white"/>
<path d="M117.229 47.3564L122.329 32.2981L136.004 33.6816C137.684 33.6816 138.223 33.4991 138.581 32.2449C138.877 31.1047 137.144 30.8691 132.044 29.9645C125.567 28.8243 123.887 25.8826 126.107 17.6047C128.509 8.72633 136.125 5.12329 146.501 5.12329L162.517 5.95944L157.599 20.3564L143.081 17.2398C142.062 17.2398 141.34 17.4831 141.044 18.5625C140.686 19.9991 141.644 20.2424 148.12 21.565C156.877 23.3665 157.356 26.1258 155.136 34.5253C152.917 42.8032 149.435 48.2001 133.663 48.2001L117.229 47.364V47.3564Z" fill="white"/>
<path d="M219.984 26.6655C216.267 40.5227 208.346 48.2001 193.052 48.2001C177.758 48.2001 173.92 40.5227 177.637 26.6655C181.354 12.7474 189.274 5.13086 204.568 5.13086C219.862 5.13086 223.701 12.7474 219.984 26.6655ZM196.769 34.282C199.05 34.282 200.068 33.9248 200.965 30.3825L203.246 21.8614C203.968 19.163 202.706 18.9197 200.904 18.9197C199.103 18.9197 197.605 19.163 196.883 21.8614L194.603 30.3825C193.706 33.9248 194.481 34.282 196.762 34.282H196.769Z" fill="white"/>
<path d="M234.867 40.4619L233.066 47.364H216.267L227.304 5.97461H240.743L245.722 23.7314C246.566 19.5354 247.645 15.2711 248.299 12.8766L250.1 5.97461H266.899L255.862 47.364H241.762L237.262 30.2077C236.479 34.4037 235.521 38.0675 234.859 40.4695L234.867 40.4619Z" fill="white"/>
<path d="M275.785 48.0559H257.275L268.715 5.14624H286.814C295.997 5.14624 301.044 6.6209 303.697 10.0871C306.221 13.3861 306.426 18.5246 304.343 26.2628C300.162 41.952 292.15 48.0635 275.777 48.0635L275.785 48.0559ZM259.252 46.5356H275.777C291.512 46.5356 298.862 40.9334 302.876 25.8599C304.829 18.6158 304.708 13.8954 302.488 11.0069C300.185 8.00435 295.351 6.65891 286.814 6.65891H269.878L259.244 46.528L259.252 46.5356ZM280.764 35.5212H277.434L282.215 17.5669H285.317C286.237 17.5669 286.943 17.8709 287.407 18.4714C288.517 19.9081 287.947 22.5533 286.951 26.4376C285.302 32.5567 283.272 35.5288 280.756 35.5288L280.764 35.5212ZM279.411 34.001H280.764C281.729 34.001 283.622 32.9672 285.492 26.0424C286.107 23.6479 286.951 20.3489 286.214 19.3988C286.107 19.262 285.902 19.0795 285.324 19.0795H283.386L279.411 33.9934V34.001Z" fill="white"/>
<path d="M351.889 48.0558H333.524L336.291 37.5052C336.641 36.2661 337.067 34.6851 337.53 32.9824C337.713 32.3134 337.895 31.6293 338.085 30.9452C336.968 33.4384 335.888 35.8937 335.09 37.7104L334.961 37.9993L330.689 48.0558H320.116L321.096 37.6268C321.279 35.8253 321.514 33.332 321.742 30.7932C321.066 33.3928 320.366 35.9925 319.827 37.908L317.159 48.0634H298.786L310.226 5.15381H332.65L332.148 21.2079L339.415 5.15381H363.329L351.889 48.0634V48.0558ZM335.493 46.5356H350.719L361.353 6.66648H340.396L331.958 25.2974L330.507 24.9629L331.084 6.66648H311.397L300.762 46.5356H315.98L318.352 37.5052C319.371 33.8717 320.967 27.7982 321.887 23.9063L322.023 23.321H323.863L323.802 24.1344C323.498 28.2239 322.958 34.2822 322.601 37.7712L321.78 46.5356H329.678L333.699 37.0947C335.242 33.5905 337.827 27.7298 339.697 23.7543L339.902 23.321H341.817L341.529 24.294C340.761 26.9013 339.826 30.3447 338.997 33.3852C338.534 35.0955 338.1 36.6766 337.758 37.908L335.493 46.5432V46.5356Z" fill="white"/>
<path d="M179.628 7.02369H179.271L180.054 4.62926C180.213 4.02115 179.848 3.52706 179.24 3.52706H174.809L175.592 0.570134C175.675 0.250878 175.485 -0.00756836 175.166 -0.00756836H173.311C172.992 -0.00756836 172.543 0.250878 172.46 0.570134L171.791 3.52706C171.791 3.52706 168.636 3.52706 168.028 3.52706C167.42 3.52706 166.797 4.02115 166.637 4.62926L165.854 7.02369H165.497C164.76 7.02369 164 7.6242 163.809 8.36153L153.646 47.4021H170.445L180.608 8.36153C180.806 7.6242 180.365 7.02369 179.628 7.02369Z" fill="white"/>
<path d="M358.29 54.0001H0L14.3438 0.212891H162.935L162.517 1.73316H15.5144L1.97635 52.4798H357.119L370.657 1.73316C353.577 1.73316 176.906 1.73316 176.906 1.73316L177.324 0.212891C177.324 0.212891 362.691 0.212891 371.645 0.212891H372.633L358.29 54.0001Z" fill="white"/>
</g>
<defs>
<clipPath id="clip0_384_957">
<rect width="372.633" height="54" fill="white"/>
</clipPath>
</defs>
</svg>
