<svg width="1330" height="1357" viewBox="0 0 1330 1357" fill="none" xmlns="http://www.w3.org/2000/svg">
<rect width="1329.58" height="1356.47" rx="250" fill="#1E1E1E"/>
<path d="M577.155 137.267C421.921 139.379 311.051 233.148 324.041 379.93C-130.679 840.891 214.35 1408.65 538.852 1178.13C1147.55 1244.09 1370.02 811.981 1197.64 606.201C1020.65 267.851 766.052 134.697 577.155 137.267ZM668.772 280.333C824.016 278.91 1027.74 373.733 1173.37 581.281C1088.54 505.024 936.813 472.294 717.385 533.841C1324.2 521.355 1130.31 1175.13 546.479 1172.58C607.777 1126.61 668.115 1051.87 721.929 942.171C355.652 1360.42 36.0404 813.242 326.965 402.285C342.909 497.211 408.729 612.021 543.801 737.428C347.059 446.715 466.87 282.179 668.774 280.335L668.772 280.333ZM721.524 577.14C647.704 576.287 580.967 628.325 564.74 704.807C546.19 792.214 600.628 878.464 686.298 897.389C771.973 916.305 856.433 860.766 874.979 773.362C893.521 685.959 839.086 599.71 753.413 580.788C742.932 578.475 732.247 577.251 721.524 577.14Z" fill="url(#paint0_linear_68_2048)"/>
<defs>
<linearGradient id="paint0_linear_68_2048" x1="105.292" y1="684.206" x2="1254.17" y2="684.206" gradientUnits="userSpaceOnUse">
<stop stop-color="#1C61FF"/>
<stop offset="1" stop-color="#F48320"/>
</linearGradient>
</defs>
</svg>
